<?xml version="1.0" standalone="no"?>
<!DOCTYPE svg PUBLIC "-//W3C//DTD SVG 20010904//EN"
 "http://www.w3.org/TR/2001/REC-SVG-20010904/DTD/svg10.dtd">
<svg version="1.0" xmlns="http://www.w3.org/2000/svg"
 width="1000.000000pt" height="1000.000000pt" viewBox="0 0 1000.000000 1000.000000"
 preserveAspectRatio="xMidYMid meet">

<g transform="translate(0.000000,1000.000000) scale(0.100000,-0.100000)"
fill="#000000" stroke="none">
<path d="M4970 9254 c-50 -22 -796 -310 -1925 -742 -774 -297 -1015 -388
-1325 -502 -162 -60 -303 -112 -313 -116 -10 -4 -23 -18 -28 -32 -21 -55 -9
-1191 16 -1562 3 -41 12 -176 20 -300 40 -589 131 -1195 251 -1675 105 -419
273 -873 448 -1210 467 -898 1165 -1586 2221 -2188 286 -163 638 -337 680
-337 42 0 355 149 591 280 1217 679 2010 1506 2458 2563 224 527 365 1067 460
1762 39 281 49 373 43 390 -6 13 -86 15 -697 15 -545 0 -690 -3 -691 -12 -2
-23 3 -101 14 -263 l12 -160 440 -5 440 -5 -3 -30 c-17 -150 -109 -581 -172
-805 -52 -182 -153 -492 -202 -615 -102 -260 -306 -630 -500 -910 -236 -340
-549 -663 -937 -969 -300 -236 -710 -495 -1058 -667 l-201 -100 -189 94 c-709
354 -1255 762 -1732 1292 -149 165 -383 493 -516 725 -181 314 -290 577 -429
1040 -132 438 -225 952 -281 1535 -50 533 -78 1122 -73 1549 l3 278 135 53
c259 99 826 317 970 372 80 30 289 110 465 178 176 67 618 236 982 375 l662
252 133 -50 c73 -27 354 -134 623 -237 270 -103 670 -256 890 -340 476 -182
1389 -531 1495 -571 l75 -30 3 -294 c3 -263 -5 -567 -25 -952 l-6 -128 210 0
210 0 7 98 c30 461 43 1545 18 1575 -15 18 -19 19 -557 222 -209 79 -459 173
-555 210 -96 37 -384 147 -640 245 -256 98 -649 249 -875 335 -225 86 -438
167 -472 181 -34 13 -136 51 -226 84 -91 33 -193 73 -228 90 -73 34 -72 34
-119 14z"/>
<path d="M5137 5893 c-2 -5 -14 -37 -25 -73 -11 -36 -59 -184 -105 -330 -208
-649 -298 -941 -292 -950 3 -6 46 -10 95 -10 100 0 88 -10 124 110 13 41 75
239 138 440 189 595 248 787 248 804 0 13 -14 16 -89 16 -50 0 -92 -3 -94 -7z"/>
<path d="M4480 5628 c-30 -27 -122 -110 -205 -183 -156 -139 -179 -166 -190
-227 -14 -76 0 -95 232 -294 118 -101 218 -184 222 -184 11 0 101 137 101 154
0 15 -34 47 -203 189 -65 55 -117 106 -117 116 0 20 53 72 205 202 109 93 125
108 125 121 0 11 -101 158 -108 158 -4 -1 -32 -24 -62 -52z"/>
<path d="M5426 5608 c-25 -39 -46 -77 -46 -83 0 -12 55 -66 223 -218 55 -51
97 -96 97 -107 0 -17 -33 -47 -267 -246 -29 -25 -53 -49 -53 -53 0 -17 93
-151 105 -151 20 0 406 330 432 369 27 40 31 107 8 151 -8 16 -81 88 -161 162
-81 73 -175 159 -209 191 -35 31 -68 57 -73 57 -6 0 -31 -32 -56 -72z"/>
<path d="M4055 3535 c-79 -18 -133 -40 -290 -118 -185 -92 -219 -102 -350
-102 -88 0 -124 5 -179 23 -75 25 -188 80 -281 136 -33 19 -61 33 -63 31 -7
-7 92 -187 161 -291 l67 -101 120 -23 c99 -19 139 -22 232 -17 143 7 212 28
398 123 167 84 234 104 353 104 109 0 180 -22 322 -100 137 -76 211 -105 299
-121 87 -15 310 -7 391 15 33 9 132 52 220 96 190 94 240 110 355 110 117 0
183 -19 335 -99 151 -80 226 -107 333 -122 86 -13 274 -5 366 14 l60 12 66
110 c69 115 172 305 164 305 -2 0 -24 -16 -50 -35 -74 -57 -263 -142 -356
-161 -106 -22 -220 -14 -309 19 -35 14 -132 58 -216 99 -190 94 -271 114 -430
105 -149 -8 -203 -24 -395 -122 -183 -93 -252 -115 -368 -115 -112 0 -176 20
-375 120 -125 63 -202 95 -250 105 -85 18 -249 18 -330 0z"/>
<path d="M4055 2906 c-95 -19 -129 -33 -286 -113 -122 -63 -234 -103 -289
-103 -11 0 -20 -3 -20 -7 0 -5 43 -52 95 -106 118 -122 95 -123 370 21 104 54
189 76 295 75 109 -1 180 -24 321 -103 200 -112 298 -136 511 -127 163 6 255
32 408 116 148 81 200 101 293 113 125 17 206 -3 392 -96 83 -41 168 -80 190
-87 l40 -12 98 104 c89 93 97 104 76 107 -73 10 -185 50 -307 111 -201 101
-255 115 -427 115 -179 1 -225 -12 -429 -115 -314 -159 -440 -160 -747 -1 -87
44 -185 86 -224 96 -92 24 -270 29 -360 12z"/>
<path d="M4105 2283 c-60 -7 -175 -34 -180 -42 -2 -5 39 -42 93 -83 157 -120
155 -119 230 -124 98 -7 158 -27 305 -103 193 -99 263 -116 462 -115 144 1
169 3 248 28 49 14 145 55 215 91 141 72 216 95 308 95 61 0 62 1 156 73 52
39 111 86 132 104 l39 31 -52 16 c-85 25 -210 38 -295 31 -128 -11 -213 -38
-385 -125 -204 -102 -250 -114 -401 -108 -129 6 -189 24 -335 105 -191 106
-369 148 -540 126z"/>
</g>
</svg>
